<?xml version="1.0" ?><svg data-name="Layer 1" id="Layer_1" viewBox="0 0 32 32" xmlns="http://www.w3.org/2000/svg"><defs><style>.cls-1{fill:#515151;}</style></defs><title/><rect class="cls-1" height="2" width="10" x="20" y="7"/><rect class="cls-1" height="2" width="10" x="20" y="21"/><rect class="cls-1" height="2" width="10" x="20" y="27"/><polygon class="cls-1" points="9 2 7 2 7 7 2 7 2 9 7 9 7 14 9 14 9 9 14 9 14 7 9 7 9 2"/><polygon class="cls-1" points="12.34 19.84 8.47 23.71 4.63 19.87 3.37 21.13 7.21 24.97 3.34 28.84 4.64 30.14 8.51 26.27 12.37 30.13 13.63 28.87 9.77 25.02 13.64 21.14 12.34 19.84"/></svg>